<?xml version="1.0" encoding="iso-8859-1"?>
<!-- Uploaded to: SVG Repo, www.svgrepo.com, Generator: SVG Repo Mixer Tools -->
<!DOCTYPE svg PUBLIC "-//W3C//DTD SVG 1.1//EN" "http://www.w3.org/Graphics/SVG/1.1/DTD/svg11.dtd">
<svg fill="#000000" version="1.1" id="Capa_1" xmlns="http://www.w3.org/2000/svg" xmlns:xlink="http://www.w3.org/1999/xlink" 
	 width="800px" height="800px" viewBox="0 0 187.065 187.064"
	 xml:space="preserve">
<g>
	<g>
		<g>
			<path d="M124.218,62.03c7.904,3.666,9.792,7.974,3.775,12.145c-5.602,3.892-19.144,6.181-22.719-4.551
				c-1.491-5.063-2.411-9.372-2.411-12.142c-0.475,1.069-3.741,6.187-4.408,6.829c-0.612,0.588-1.023,0.43-1.51,0
				c-0.917-0.792-4.028-1.333-5.307,0c-0.454,0.475-1.078,0.441-1.513,0c-0.6-0.6-4.408-6.829-4.408-6.829s-0.171,8.339-1.66,11.381
				c-1.477,3.045-11.746,13.694-24.232,5.319c-4.107-2.874-2.709-10.187,3.361-12.221C56.985,62.959,21.211,64.311,0,101.513
				c7.496-1.814,36.733-10.397,46.198,11.368c7.861-4.024,37.966-5.134,47.642,16.702c10.735-22.018,39.525-20.946,46.752-15.936
				c3.13-6.119,13.956-22.146,46.473-12.135C185,92.19,172.226,69.523,124.218,62.03z M90.485,74.918
				c-0.441,0.441-1.638-0.04-2.673-1.075c-1.041-1.035-1.516-2.238-1.072-2.685c0.441-0.445,1.645,0.036,2.68,1.077
				C90.448,73.265,90.936,74.461,90.485,74.918z M100.349,73.776c-0.959,0.965-2.082,1.416-2.487,0.999
				c-0.405-0.414,0.033-1.528,0.999-2.497c0.965-0.959,2.073-1.406,2.487-0.989C101.75,71.694,101.311,72.808,100.349,73.776z"/>
		</g>
	</g>
</g>
</svg>